<?xml version="1.0" standalone="no"?>
<!DOCTYPE svg PUBLIC "-//W3C//DTD SVG 20010904//EN"
 "http://www.w3.org/TR/2001/REC-SVG-20010904/DTD/svg10.dtd">
<svg version="1.0" xmlns="http://www.w3.org/2000/svg"
 width="1142.000000pt" height="1142.000000pt" viewBox="0 0 1142.000000 1142.000000"
 preserveAspectRatio="xMidYMid meet">
<metadata>
Created by potrace 1.11, written by Peter Selinger 2001-2013
</metadata>
<g transform="translate(0.000000,1142.000000) scale(0.100000,-0.100000)"
fill="#000000" stroke="none">
<path d="M5195 9399 c-60 -5 -146 -15 -190 -23 -44 -8 -100 -18 -125 -22 -211
-31 -745 -232 -875 -329 -66 -49 -274 -185 -283 -185 -12 0 -183 -152 -303
-268 -47 -46 -90 -87 -95 -91 -5 -3 -25 -26 -44 -51 -19 -25 -61 -76 -93 -115
-33 -38 -73 -90 -90 -115 -17 -25 -36 -49 -42 -55 -25 -22 -85 -116 -140 -220
-31 -60 -63 -117 -70 -125 -6 -8 -31 -51 -53 -95 -110 -211 -182 -386 -203
-490 -6 -27 -25 -95 -43 -150 -52 -155 -97 -363 -128 -587 -20 -143 -23 -205
-23 -508 0 -360 11 -514 56 -780 26 -159 74 -381 99 -465 12 -38 28 -99 35
-135 16 -73 70 -236 84 -254 5 -6 30 -60 56 -121 49 -116 67 -150 153 -290 29
-47 61 -105 72 -128 10 -23 39 -67 64 -97 25 -30 73 -91 107 -135 34 -44 76
-96 94 -115 18 -19 47 -60 65 -90 17 -30 40 -69 51 -86 26 -42 13 -79 -30 -89
-42 -9 -142 21 -224 67 -38 21 -74 38 -80 38 -7 0 -25 11 -42 25 -16 14 -57
38 -90 54 -34 16 -67 36 -74 45 -7 9 -27 16 -44 16 -29 0 -30 0 -12 -20 10
-11 26 -22 36 -25 11 -4 19 -12 19 -20 0 -7 28 -35 63 -63 34 -27 80 -67 103
-88 64 -61 91 -84 98 -84 4 0 28 -17 55 -37 65 -51 154 -113 195 -138 18 -11
44 -27 57 -36 13 -9 106 -67 206 -128 179 -110 252 -147 343 -178 25 -8 52
-21 60 -28 8 -7 39 -23 68 -34 70 -28 232 -101 477 -216 39 -18 102 -47 140
-65 81 -36 249 -117 350 -167 85 -42 205 -83 368 -125 114 -29 137 -31 342
-35 198 -5 240 -2 420 22 110 14 223 32 250 40 28 7 113 28 190 45 77 18 165
42 195 55 30 13 78 29 105 36 28 7 93 30 145 52 52 22 132 52 176 67 94 32
245 109 374 190 8 5 29 17 45 26 17 9 68 42 114 73 46 31 96 63 111 71 66 36
300 221 334 265 15 20 51 52 80 70 58 38 217 198 261 263 15 24 44 56 63 73
41 37 161 181 198 241 15 24 55 86 89 138 165 254 295 493 326 600 7 25 16 50
21 56 4 6 17 35 28 65 10 30 42 117 70 194 29 77 56 160 61 185 6 25 21 81 34
125 36 125 63 255 91 445 23 152 27 218 31 495 5 301 3 332 -21 520 -14 110
-37 256 -50 325 -42 205 -135 527 -181 627 -8 17 -15 36 -15 42 0 6 -14 39
-30 73 -17 34 -35 81 -41 103 -22 84 -194 405 -246 460 -6 7 -19 30 -28 51 -9
21 -26 49 -37 61 -12 13 -31 38 -42 57 -46 75 -80 120 -114 156 -21 20 -57 57
-80 83 -24 26 -48 44 -53 41 -6 -3 -5 -11 2 -20 18 -22 46 -73 79 -142 16 -35
45 -86 64 -115 40 -61 106 -187 106 -202 0 -16 53 -136 73 -167 10 -15 27 -51
38 -80 21 -54 84 -217 99 -253 63 -156 137 -422 150 -544 6 -57 15 -114 20
-126 10 -27 34 -240 51 -450 28 -355 -40 -1033 -131 -1305 -10 -30 -33 -100
-50 -155 -39 -122 -82 -229 -164 -408 -20 -44 -36 -82 -36 -86 0 -4 -11 -22
-25 -41 -14 -19 -25 -42 -25 -52 0 -17 -33 -85 -96 -193 -25 -45 -70 -109
-110 -158 -8 -9 -14 -19 -14 -22 0 -3 -22 -36 -49 -74 -27 -38 -58 -84 -68
-104 -18 -35 -56 -79 -244 -287 -59 -65 -108 -122 -110 -126 -2 -5 -24 -25
-49 -44 -25 -19 -58 -48 -75 -65 -16 -17 -66 -62 -109 -100 -44 -39 -93 -84
-110 -102 -17 -17 -49 -40 -71 -51 -22 -12 -62 -37 -90 -56 -27 -20 -81 -58
-120 -84 -38 -26 -73 -51 -76 -55 -4 -5 -16 -14 -27 -20 -11 -7 -66 -38 -121
-69 -55 -32 -113 -61 -128 -64 -15 -4 -59 -24 -98 -45 -38 -21 -104 -52 -145
-69 -124 -52 -144 -61 -170 -75 -14 -7 -72 -27 -128 -44 -57 -17 -106 -33
-110 -35 -26 -16 -264 -69 -383 -86 -79 -11 -171 -24 -204 -29 -33 -5 -144
-15 -246 -22 -165 -11 -202 -11 -315 4 -163 21 -316 51 -374 72 -106 38 -317
129 -335 144 -11 9 -36 25 -57 36 -20 10 -64 44 -97 75 -52 48 -61 61 -61 91
0 70 59 100 245 123 134 17 275 37 380 55 80 14 430 58 525 66 226 20 621 98
750 150 19 7 78 30 130 51 106 41 231 102 330 158 36 20 85 46 110 57 83 36
114 54 160 90 25 19 77 57 115 85 147 102 284 218 405 342 165 167 199 207
297 343 46 63 108 148 138 189 30 41 64 94 76 117 11 24 24 45 29 48 5 3 11
19 15 35 4 17 22 58 41 93 140 253 281 639 303 827 5 47 12 92 15 100 22 60
48 320 53 525 6 257 -5 424 -41 635 -13 74 -27 160 -31 190 -13 115 -111 411
-189 575 -19 39 -42 88 -52 110 -10 22 -35 71 -56 109 -21 38 -38 74 -38 80 0
6 -16 35 -35 64 -19 29 -40 63 -47 76 -29 52 -138 204 -177 246 -23 25 -63 76
-89 114 -91 137 -481 495 -607 558 -22 11 -64 38 -94 60 -105 79 -475 278
-516 278 -16 0 -122 34 -170 56 -44 19 -187 62 -295 89 -279 70 -626 98 -935
74z m-124 -470 c57 -11 138 -29 179 -40 109 -29 431 -138 457 -155 12 -7 59
-25 105 -38 113 -33 108 -31 243 -96 66 -32 158 -75 205 -95 47 -21 119 -57
160 -81 41 -23 102 -54 135 -69 187 -85 333 -173 378 -228 33 -40 39 -105 14
-153 -8 -16 -28 -76 -43 -134 l-29 -105 -3 -1103 c-3 -1255 -11 -1143 87
-1216 99 -73 131 -110 131 -147 0 -58 -17 -99 -62 -149 -24 -26 -72 -84 -108
-130 -81 -103 -167 -189 -197 -196 -13 -4 -38 -3 -57 0 -39 7 -179 90 -253
149 -28 23 -110 82 -181 131 -172 116 -175 121 -137 265 15 58 34 133 42 166
11 44 17 144 20 380 6 405 -1 446 -84 481 -26 11 -120 14 -450 14 -545 -1
-511 13 -538 -210 -8 -63 -19 -160 -25 -215 -9 -93 -36 -272 -61 -408 -11 -65
-91 -313 -118 -367 -74 -149 -213 -389 -261 -450 -14 -17 -53 -67 -88 -110
-34 -43 -87 -103 -117 -132 -30 -29 -63 -61 -72 -71 -114 -116 -151 -148 -233
-201 -125 -81 -178 -105 -191 -85 -10 16 -3 61 16 99 7 14 23 54 35 90 13 35
31 78 41 95 41 68 61 110 115 242 72 176 85 218 127 388 58 237 63 269 113
825 11 122 16 291 16 560 l1 385 -32 180 c-17 99 -31 208 -31 242 0 55 3 66
30 97 17 19 93 74 168 122 75 49 150 99 166 112 16 13 65 41 109 64 44 22 96
50 116 63 60 39 138 68 165 61 44 -11 51 -57 31 -230 -12 -112 -16 -211 -13
-381 3 -256 6 -267 71 -302 29 -16 69 -18 457 -18 396 0 428 1 463 19 72 36
72 34 75 470 3 467 2 480 -70 549 -51 48 -145 98 -209 112 -19 4 -38 11 -44
15 -5 4 -28 13 -50 20 -22 7 -54 21 -71 31 -42 26 -133 57 -218 75 -38 8 -92
27 -120 43 -28 16 -78 39 -111 51 -155 55 -336 110 -395 120 -160 26 -352 69
-375 84 -29 19 -32 53 -9 99 20 39 108 150 137 174 12 10 34 36 50 59 29 43
118 131 161 159 30 20 93 44 117 45 9 0 63 -9 120 -21z"/>
</g>
</svg>
